# xmcd
#
# Track frame offsets: 
#        150
#        18683
#        37908
#        69228
#        87033
#        130858
#        139968
#        157136
#        187108
#        201313
#        218636
#        233661
#
# Disc length: 3452 seconds
#
# Revision: 0
# Processed by: cddbd v1.5.2PL0 Copyright (c) Steve Scherf et al.
# Submitted via: ExactAudioCopy v0.99pb5
#
DISCID=a80d7a0c
DTITLE=Ray Kamalay and his Red Hot Peppers - Meet Me Where They Play T
DTITLE=he Blues
DYEAR=2000
DGENRE=Blues
TTITLE0=Come on Back
TTITLE1=A Porter's Love Song to a Chambermaid
TTITLE2=I Hate a Man Like You
TTITLE3=Swing 42
TTITLE4=Stella by Starlight
TTITLE5=There's Gonna Be the Devil to Pay
TTITLE6=When Day Begins
TTITLE7=Body and Soul
TTITLE8=The Joint is Jumpin'
TTITLE9=Nuages
TTITLE10=It's the Girl
TTITLE11=Meet Me Where They Play the Blues
EXTD=
EXTT0=
EXTT1=
EXTT2=
EXTT3=
EXTT4=
EXTT5=
EXTT6=
EXTT7=
EXTT8=
EXTT9=
EXTT10=
EXTT11=
PLAYORDER=
